<?xml version="1.0" encoding="us-ascii" standalone="no"?><svg xmlns="http://www.w3.org/2000/svg" xmlns:xlink="http://www.w3.org/1999/xlink" contentStyleType="text/css" height="432px" preserveAspectRatio="none" style="width:848px;height:432px;background:#FFFFFF;" version="1.1" viewBox="0 0 848 432" width="848px" zoomAndPan="magnify"><defs/><g><text fill="#000000" font-family="sans-serif" font-size="14" font-weight="bold" lengthAdjust="spacing" textLength="115" x="13" y="220.9707">&#1056;&#1048;&#1057;&#1050;&#1048; &#1048; &#1044;&#1054;&#1051;&#1043;&#1048;</text><rect fill="#FFBBCC" height="38.6211" rx="12.5" ry="12.5" style="stroke:#181818;stroke-width:1.5;" width="58" x="182" y="107.9316"/><text fill="#000000" font-family="sans-serif" font-size="14" lengthAdjust="spacing" text-decoration="underline" textLength="38" x="192" y="133.0391">&#1056;&#1080;&#1089;&#1082;&#1080;</text><rect fill="#FFBBCC" height="38.6211" rx="12.5" ry="12.5" style="stroke:#181818;stroke-width:1.5;" width="231" x="290" y="20"/><text fill="#000000" font-family="sans-serif" font-size="14" lengthAdjust="spacing" textLength="211" x="300" y="45.1074">&#1053;&#1077;&#1076;&#1086;&#1089;&#1090;&#1091;&#1087;&#1085;&#1086;&#1089;&#1090;&#1100; &#1074;&#1085;&#1077;&#1096;&#1085;&#1080;&#1093; &#1089;&#1080;&#1089;&#1090;&#1077;&#1084;</text><path d="M240,127.2422 L250,127.2422 C265,127.2422 265,39.3105 280,39.3105 L290,39.3105 " fill="none" style="stroke:#181818;stroke-width:1.0;"/><rect fill="#FFBBCC" height="38.6211" rx="12.5" ry="12.5" style="stroke:#181818;stroke-width:1.5;" width="136" x="290" y="78.6211"/><text fill="#000000" font-family="sans-serif" font-size="14" lengthAdjust="spacing" textLength="116" x="300" y="103.7285">&#1042;&#1099;&#1089;&#1086;&#1082;&#1072;&#1103; &#1085;&#1072;&#1075;&#1088;&#1091;&#1079;&#1082;&#1072;</text><path d="M240,127.2422 L250,127.2422 C265,127.2422 265,97.9316 280,97.9316 L290,97.9316 " fill="none" style="stroke:#181818;stroke-width:1.0;"/><rect fill="#FFBBCC" height="38.6211" rx="12.5" ry="12.5" style="stroke:#181818;stroke-width:1.5;" width="209" x="290" y="137.2422"/><text fill="#000000" font-family="sans-serif" font-size="14" lengthAdjust="spacing" textLength="189" x="300" y="162.3496">&#1059;&#1103;&#1079;&#1074;&#1080;&#1084;&#1086;&#1089;&#1090;&#1080; &#1074; &#1089;&#1074;&#1086;&#1073;&#1086;&#1076;&#1085;&#1086;&#1084; &#1055;&#1054;</text><path d="M240,127.2422 L250,127.2422 C265,127.2422 265,156.5527 280,156.5527 L290,156.5527 " fill="none" style="stroke:#181818;stroke-width:1.0;"/><rect fill="#FFBBCC" height="38.6211" rx="12.5" ry="12.5" style="stroke:#181818;stroke-width:1.5;" width="216" x="290" y="195.8633"/><text fill="#000000" font-family="sans-serif" font-size="14" lengthAdjust="spacing" textLength="196" x="300" y="220.9707">&#1056;&#1072;&#1079;&#1088;&#1072;&#1089;&#1090;&#1072;&#1085;&#1080;&#1077; &#1087;&#1072;&#1082;&#1077;&#1090;&#1086;&#1074; &#1089; &#1082;&#1086;&#1076;&#1086;&#1084;</text><path d="M240,127.2422 L250,127.2422 C265,127.2422 265,215.1738 280,215.1738 L290,215.1738 " fill="none" style="stroke:#181818;stroke-width:1.0;"/><path d="M132,215.1738 L142,215.1738 C157,215.1738 157,127.2422 172,127.2422 L182,127.2422 " fill="none" style="stroke:#181818;stroke-width:1.0;"/><rect fill="#FFFF00" height="38.6211" rx="12.5" ry="12.5" style="stroke:#181818;stroke-width:1.5;" width="58" x="182" y="313.1055"/><text fill="#000000" font-family="sans-serif" font-size="14" lengthAdjust="spacing" textLength="38" x="192" y="338.2129">&#1044;&#1086;&#1083;&#1075;&#1080;</text><rect fill="#FFFF00" height="38.6211" rx="12.5" ry="12.5" style="stroke:#181818;stroke-width:1.5;" width="272" x="290" y="254.4844"/><text fill="#000000" font-family="sans-serif" font-size="14" lengthAdjust="spacing" textLength="252" x="300" y="279.5918">&#1057;&#1073;&#1086;&#1088; &#1080; &#1093;&#1088;&#1072;&#1085;&#1077;&#1085;&#1080;&#1077; &#1083;&#1086;&#1075;&#1086;&#1074; (ElasticSearch)</text><path d="M240,332.416 L250,332.416 C265,332.416 265,273.7949 280,273.7949 L290,273.7949 " fill="none" style="stroke:#181818;stroke-width:1.0;"/><rect fill="#FFFF00" height="38.6211" rx="12.5" ry="12.5" style="stroke:#181818;stroke-width:1.5;" width="546" x="290" y="313.1055"/><text fill="#000000" font-family="sans-serif" font-size="14" lengthAdjust="spacing" textLength="526" x="300" y="338.2129">&#1050;&#1086;&#1084;&#1087;&#1077;&#1085;&#1089;&#1072;&#1094;&#1080;&#1086;&#1085;&#1085;&#1099;&#1077; &#1089;&#1094;&#1077;&#1085;&#1072;&#1088;&#1080;&#1080; (&#1054;&#1096;&#1080;&#1073;&#1082;&#1080; &#1086;&#1087;&#1083;&#1072;&#1090;&#1099;, &#1076;&#1086;&#1089;&#1090;&#1072;&#1074;&#1082;&#1080;, &#1085;&#1072;&#1083;&#1080;&#1095;&#1080;&#1103; &#1090;&#1086;&#1074;&#1072;&#1088;&#1072; &#1080;&#1090;.&#1076;.)</text><path d="M240,332.416 L250,332.416 C265,332.416 265,332.416 280,332.416 L290,332.416 " fill="none" style="stroke:#181818;stroke-width:1.0;"/><rect fill="#FFFF00" height="38.6211" rx="12.5" ry="12.5" style="stroke:#181818;stroke-width:1.5;" width="484" x="290" y="371.7266"/><text fill="#000000" font-family="sans-serif" font-size="14" lengthAdjust="spacing" textLength="464" x="300" y="396.834">&#1059;&#1087;&#1088;&#1072;&#1074;&#1083;&#1077;&#1085;&#1080;&#1077; &#1090;&#1088;&#1072;&#1085;&#1079;&#1072;&#1082;&#1094;&#1080;&#1103;&#1084;&#1080; &#1074; &#1089;&#1083;&#1091;&#1095;&#1072;&#1077; &#1086;&#1096;&#1080;&#1073;&#1086;&#1082; &#1074; &#1089;&#1077;&#1088;&#1074;&#1080;&#1089;&#1072;&#1093; (Service Mesh)</text><path d="M240,332.416 L250,332.416 C265,332.416 265,391.0371 280,391.0371 L290,391.0371 " fill="none" style="stroke:#181818;stroke-width:1.0;"/><path d="M132,215.1738 L142,215.1738 C157,215.1738 157,332.416 172,332.416 L182,332.416 " fill="none" style="stroke:#181818;stroke-width:1.0;"/><!--SRC=[NPBVIXjH4CRlzoa6l8d1ncxIUX62Y54BCQ5Yq5w8b4roQXUIJTW_ATx5YBQGGg3jXLYQAhx0DdzmCN5zXJblrEzi4bi2sR0xS-RtVJDpDXpNiDsQQLLgHaEBlwTCQPrl-8fl-PglIFr-S8z_ydUyPbPBwreyVhIqixEvcSqUKyPJXmDvnWySP5OzbVqlpRzun4CEvPbiotD-uiVP-rVYFZv6yWl-0tb180GgW_EJ1SOtsK4sX88lkuJpFWza2xXx5LeuV2UxYFSvuCbKYWD8ANmVY3zuXie4JuX_Ss-X-0ReUzc2ZYhqbJKU4MpxK1eX54OemfVYX97LewLJKQtMFnshGOKyvW47K-vp_5O9onR1YxnGVDNwd3v6qI0YnxQhXkEQvQ8mxFB7vGN8jTA35nIY6rzUeZm4v55sW87ZouZfWnz0ACOz33U0yeCQGOZACP9jsLcX-KfWfA_IAzEfZh62ptYwD6qrOlbmBTi97YOM3TtnKzHB7uNpRi2VjdUlPgOyOX-JvnsCvJaKVDLsE7E7lSwI8vJsexlauqB4Yi9kccL11U5W5jg6m0sTtL9jhsfOxa4XJqrXEsRT8ZsHV9bC9NGzzavKg2WQfASegQUJQ-bKYWh5NLBvPItsPYzFJjsp0QwOZckR9Sy5O5dB6Ks3zZtBDMiYJMyRmifjxSu3j6qrJRjkrOJbQhd3mhy3QwzUR9ekARF2fiE2jYK-65xLHKMvNZ6japHb6thojQxb3Ul4Cqu0jpqjMmVOFatJ_i5V]--></g></svg>