<?xml version="1.0" encoding="us-ascii" standalone="no"?><svg xmlns="http://www.w3.org/2000/svg" xmlns:xlink="http://www.w3.org/1999/xlink" contentStyleType="text/css" height="608px" preserveAspectRatio="none" style="width:1091px;height:608px;background:#FFFFFF;" version="1.1" viewBox="0 0 1091 608" width="1091px" zoomAndPan="magnify"><defs/><g><text fill="#000000" font-family="sans-serif" font-size="14" font-weight="bold" lengthAdjust="spacing" textLength="203" x="516" y="308.9023">&#1057;&#1058;&#1056;&#1040;&#1058;&#1045;&#1043;&#1048;&#1063;&#1045;&#1057;&#1050;&#1048;&#1045; &#1056;&#1045;&#1064;&#1045;&#1053;&#1048;&#1071;</text><rect fill="#ADD8E6" height="38.6211" rx="12.5" ry="12.5" style="stroke:#181818;stroke-width:1.5;" width="96" x="769" y="166.5527"/><text fill="#000000" font-family="sans-serif" font-size="14" lengthAdjust="spacing" text-decoration="underline" textLength="76" x="779" y="191.6602">&#1058;&#1077;&#1093;&#1085;&#1086;&#1083;&#1086;&#1075;&#1080;&#1080;</text><rect fill="#ADD8E6" height="38.6211" rx="12.5" ry="12.5" style="stroke:#181818;stroke-width:1.5;" width="49" x="915" y="20"/><text fill="#000000" font-family="sans-serif" font-size="14" lengthAdjust="spacing" textLength="29" x="925" y="45.1074">Java</text><path d="M865,185.8633 L875,185.8633 C890,185.8633 890,39.3105 905,39.3105 L915,39.3105 " fill="none" style="stroke:#181818;stroke-width:1.0;"/><rect fill="#ADD8E6" height="38.6211" rx="12.5" ry="12.5" style="stroke:#181818;stroke-width:1.5;" width="97" x="915" y="78.6211"/><text fill="#000000" font-family="sans-serif" font-size="14" lengthAdjust="spacing" textLength="77" x="925" y="103.7285">PostgreSQL</text><path d="M865,185.8633 L875,185.8633 C890,185.8633 890,97.9316 905,97.9316 L915,97.9316 " fill="none" style="stroke:#181818;stroke-width:1.0;"/><rect fill="#ADD8E6" height="38.6211" rx="12.5" ry="12.5" style="stroke:#181818;stroke-width:1.5;" width="76" x="915" y="137.2422"/><text fill="#000000" font-family="sans-serif" font-size="14" lengthAdjust="spacing" textLength="56" x="925" y="162.3496">JS/React</text><path d="M865,185.8633 L875,185.8633 C890,185.8633 890,156.5527 905,156.5527 L915,156.5527 " fill="none" style="stroke:#181818;stroke-width:1.0;"/><rect fill="#ADD8E6" height="38.6211" rx="12.5" ry="12.5" style="stroke:#181818;stroke-width:1.5;" width="82" x="915" y="195.8633"/><text fill="#000000" font-family="sans-serif" font-size="14" lengthAdjust="spacing" textLength="62" x="925" y="220.9707">REST API</text><path d="M865,185.8633 L875,185.8633 C890,185.8633 890,215.1738 905,215.1738 L915,215.1738 " fill="none" style="stroke:#181818;stroke-width:1.0;"/><rect fill="#ADD8E6" height="38.6211" rx="12.5" ry="12.5" style="stroke:#181818;stroke-width:1.5;" width="83" x="915" y="254.4844"/><text fill="#000000" font-family="sans-serif" font-size="14" lengthAdjust="spacing" textLength="63" x="925" y="279.5918">RabbitMQ</text><path d="M865,185.8633 L875,185.8633 C890,185.8633 890,273.7949 905,273.7949 L915,273.7949 " fill="none" style="stroke:#181818;stroke-width:1.0;"/><rect fill="#ADD8E6" height="38.6211" rx="12.5" ry="12.5" style="stroke:#181818;stroke-width:1.5;" width="93" x="915" y="313.1055"/><text fill="#000000" font-family="sans-serif" font-size="14" lengthAdjust="spacing" textLength="73" x="925" y="338.2129">Kubernetes</text><path d="M865,185.8633 L875,185.8633 C890,185.8633 890,332.416 905,332.416 L915,332.416 " fill="none" style="stroke:#181818;stroke-width:1.0;"/><path d="M719,303.1055 L729,303.1055 C744,303.1055 744,185.8633 759,185.8633 L769,185.8633 " fill="none" style="stroke:#181818;stroke-width:1.0;"/><rect fill="#FFA500" height="38.6211" rx="12.5" ry="12.5" style="stroke:#181818;stroke-width:1.5;" width="116" x="769" y="459.6582"/><text fill="#000000" font-family="sans-serif" font-size="14" lengthAdjust="spacing" text-decoration="underline" textLength="96" x="779" y="484.7656">&#1044;&#1077;&#1082;&#1086;&#1084;&#1087;&#1086;&#1079;&#1080;&#1094;&#1080;&#1103;</text><rect fill="#FFA500" height="38.6211" rx="12.5" ry="12.5" style="stroke:#181818;stroke-width:1.5;" width="68" x="935" y="371.7266"/><text fill="#000000" font-family="sans-serif" font-size="14" lengthAdjust="spacing" textLength="48" x="945" y="396.834">OpenID</text><path d="M885,478.9688 L895,478.9688 C910,478.9688 910,391.0371 925,391.0371 L935,391.0371 " fill="none" style="stroke:#181818;stroke-width:1.0;"/><rect fill="#FFA500" height="38.6211" rx="12.5" ry="12.5" style="stroke:#181818;stroke-width:1.5;" width="144" x="935" y="430.3477"/><text fill="#000000" font-family="sans-serif" font-size="14" lengthAdjust="spacing" textLength="124" x="945" y="455.4551">&#1055;&#1083;&#1072;&#1090;&#1077;&#1078;&#1085;&#1099;&#1081; &#1089;&#1077;&#1088;&#1074;&#1080;&#1089;</text><path d="M885,478.9688 L895,478.9688 C910,478.9688 910,449.6582 925,449.6582 L935,449.6582 " fill="none" style="stroke:#181818;stroke-width:1.0;"/><rect fill="#FFA500" height="38.6211" rx="12.5" ry="12.5" style="stroke:#181818;stroke-width:1.5;" width="132" x="935" y="488.9688"/><text fill="#000000" font-family="sans-serif" font-size="14" lengthAdjust="spacing" textLength="112" x="945" y="514.0762">&#1057;&#1077;&#1088;&#1074;&#1080;&#1089; &#1044;&#1086;&#1089;&#1090;&#1072;&#1074;&#1082;&#1080;</text><path d="M885,478.9688 L895,478.9688 C910,478.9688 910,508.2793 925,508.2793 L935,508.2793 " fill="none" style="stroke:#181818;stroke-width:1.0;"/><rect fill="#FFA500" height="38.6211" rx="12.5" ry="12.5" style="stroke:#181818;stroke-width:1.5;" width="133" x="935" y="547.5898"/><text fill="#000000" font-family="sans-serif" font-size="14" lengthAdjust="spacing" textLength="113" x="945" y="572.6973">&#1055;&#1086;&#1095;&#1090;&#1086;&#1074;&#1099;&#1081; &#1089;&#1077;&#1088;&#1074;&#1080;&#1089;</text><path d="M885,478.9688 L895,478.9688 C910,478.9688 910,566.9004 925,566.9004 L935,566.9004 " fill="none" style="stroke:#181818;stroke-width:1.0;"/><path d="M719,303.1055 L729,303.1055 C744,303.1055 744,478.9688 759,478.9688 L769,478.9688 " fill="none" style="stroke:#181818;stroke-width:1.0;"/><rect fill="#90EE90" height="38.6211" rx="12.5" ry="12.5" style="stroke:#181818;stroke-width:1.5;" width="162" x="301" y="166.5527"/><text fill="#000000" font-family="sans-serif" font-size="14" lengthAdjust="spacing" text-decoration="underline" textLength="142" x="311" y="191.6602">&#1040;&#1088;&#1093;&#1080;&#1090;&#1077;&#1082;&#1090;&#1091;&#1088;&#1085;&#1099;&#1081; &#1089;&#1090;&#1080;&#1083;&#1100;</text><rect fill="#90EE90" height="38.6211" rx="12.5" ry="12.5" style="stroke:#181818;stroke-width:1.5;" width="49" x="202" y="137.2422"/><text fill="#000000" font-family="sans-serif" font-size="14" lengthAdjust="spacing" textLength="29" x="212" y="162.3496">MSA</text><path d="M301,185.8633 L291,185.8633 C276,185.8633 276,156.5527 261,156.5527 L251,156.5527 " fill="none" style="stroke:#181818;stroke-width:1.0;"/><rect fill="#90EE90" height="38.6211" rx="12.5" ry="12.5" style="stroke:#181818;stroke-width:1.5;" width="241" x="10" y="195.8633"/><text fill="#000000" font-family="sans-serif" font-size="14" lengthAdjust="spacing" textLength="221" x="20" y="220.9707">&#1055;&#1072;&#1082;&#1077;&#1090;&#1086;&#1088;&#1086;&#1074;&#1072;&#1085;&#1080;&#1077; &#1076;&#1072;&#1085;&#1085;&#1099;&#1093; &#1087;&#1086; &#1092;&#1080;&#1095;&#1072;&#1084;</text><path d="M301,185.8633 L291,185.8633 C276,185.8633 276,215.1738 261,215.1738 L251,215.1738 " fill="none" style="stroke:#181818;stroke-width:1.0;"/><path d="M513,303.1055 L503,303.1055 C488,303.1055 488,185.8633 473,185.8633 L463,185.8633 " fill="none" style="stroke:#181818;stroke-width:1.0;"/><rect fill="#FFBBCC" height="38.6211" rx="12.5" ry="12.5" style="stroke:#181818;stroke-width:1.5;" width="116" x="347" y="342.416"/><text fill="#000000" font-family="sans-serif" font-size="14" lengthAdjust="spacing" text-decoration="underline" textLength="96" x="357" y="367.5234">&#1062;&#1077;&#1083;&#1080; &#1082;&#1072;&#1095;&#1077;&#1089;&#1090;&#1074;&#1072;</text><rect fill="#FFBBCC" height="38.6211" rx="12.5" ry="12.5" style="stroke:#181818;stroke-width:1.5;" width="159" x="138" y="254.4844"/><text fill="#000000" font-family="sans-serif" font-size="14" lengthAdjust="spacing" textLength="139" x="148" y="279.5918">&#1055;&#1088;&#1086;&#1080;&#1079;&#1074;&#1086;&#1076;&#1080;&#1090;&#1077;&#1083;&#1100;&#1085;&#1086;&#1089;&#1090;&#1100;</text><path d="M347,361.7266 L337,361.7266 C322,361.7266 322,273.7949 307,273.7949 L297,273.7949 " fill="none" style="stroke:#181818;stroke-width:1.0;"/><rect fill="#FFBBCC" height="38.6211" rx="12.5" ry="12.5" style="stroke:#181818;stroke-width:1.5;" width="151" x="146" y="313.1055"/><text fill="#000000" font-family="sans-serif" font-size="14" lengthAdjust="spacing" textLength="131" x="156" y="338.2129">&#1052;&#1072;&#1089;&#1096;&#1090;&#1072;&#1073;&#1080;&#1088;&#1091;&#1077;&#1084;&#1086;&#1089;&#1090;&#1100;</text><path d="M347,361.7266 L337,361.7266 C322,361.7266 322,332.416 307,332.416 L297,332.416 " fill="none" style="stroke:#181818;stroke-width:1.0;"/><rect fill="#FFBBCC" height="38.6211" rx="12.5" ry="12.5" style="stroke:#181818;stroke-width:1.5;" width="104" x="193" y="371.7266"/><text fill="#000000" font-family="sans-serif" font-size="14" lengthAdjust="spacing" textLength="84" x="203" y="396.834">&#1044;&#1086;&#1089;&#1090;&#1091;&#1087;&#1085;&#1086;&#1089;&#1090;&#1100;</text><path d="M347,361.7266 L337,361.7266 C322,361.7266 322,391.0371 307,391.0371 L297,391.0371 " fill="none" style="stroke:#181818;stroke-width:1.0;"/><rect fill="#FFBBCC" height="38.6211" rx="12.5" ry="12.5" style="stroke:#181818;stroke-width:1.5;" width="112" x="185" y="430.3477"/><text fill="#000000" font-family="sans-serif" font-size="14" lengthAdjust="spacing" textLength="92" x="195" y="455.4551">&#1041;&#1077;&#1079;&#1086;&#1087;&#1072;&#1089;&#1085;&#1086;&#1089;&#1090;&#1100;</text><path d="M347,361.7266 L337,361.7266 C322,361.7266 322,449.6582 307,449.6582 L297,449.6582 " fill="none" style="stroke:#181818;stroke-width:1.0;"/><path d="M513,303.1055 L503,303.1055 C488,303.1055 488,361.7266 473,361.7266 L463,361.7266 " fill="none" style="stroke:#181818;stroke-width:1.0;"/><!--SRC=[TLDTJnD157tVNp69Bz14whRAGzCqG0k6VeJI2ZuOOtRfK3TfjytkB0blBOYOI296cnYZGNnGtwn8PUtdNxZpZpoxjAbqmyFinxtdd7lkdPabMsYMg1fcgQhLbT0p5jSJT4vVwGkTujcYT_I1lkDzJX_nrM98jEW7rcVy_eo7zOGI2ZsvKp7ApuLUSVXJ5dSIO7Ra4GreI3sit-II6myx7lGcDgtjQO5WlcQBiiMBczaWlXWkS6r711A5rU8ZjfnV3oOqNJT4RZEGo3WwjqmkkEqti65fPddi_Zrrg0lVVHhXUKMkV8drPjh11BnHv-PwwcQCpj1pMnv0umyDv6lwosGJusZG1KIQC-3pQOQXxb0smMmZq2Kte3kKnyWEwIAeMk6xWjb6YKzt0oFavdL3fxA1xN1zKrrv80_1crX3qAMUF9dPdp4xLrmE1c6b3OCTpmoKO0Z_0yXq65twdn2NHymR7vClKFWOqRvlRMrjPIMPlBRr3NPwv39ejG7f-6QWDRKoGTEPNyV5PbpWVJdk1RQzG-RnvCaCunCqc_ALFyvVm3Va8HZzMz3ZqGCpkbNnBVXNg3xobFz3BN7Sdl4DKl8LpHHRkIpRuvPjr4ocBaJkHQ8BgZhtc9TOaTUP6cKHDHPPZ4MZc6-6UVbvPUvXFiliccFjS5OoR64PkYCWCAzubuGL75COLHxpprmwbPa4sAgvPrWriyfDeQItSrF0ulsxAuP0HGjMs7PEIV5TpQa8C7Pg9SCinrYohaOUg4eM9ypHoX2t72LPWx2r7sE5hNy0]--></g></svg>